# xmcd
#
# Track frame offsets: 
#        150
#        17665
#        43372
#        58461
#        77664
#        96589
#        116207
#        135502
#        158948
#        181467
#        197820
#        229032
#        243705
#        262073
#
# Disc length: 3735 seconds
#
# Revision: 0
# Processed by: cddbd v1.5.2PL0 Copyright (c) Steve Scherf et al.
# Submitted via: ExactAudioCopyFreeDBPlugin 1.0
#
DISCID=d40e950e
DTITLE=East Blues Experience - Make It Better
DYEAR=2019
DGENRE=Blues
TTITLE0=Thirty Something
TTITLE1=Always On The Run
TTITLE2=Make It Better
TTITLE3=Keep On Rolling
TTITLE4=I Will Get Along
TTITLE5=Whorehouse Blues
TTITLE6=Himmelblau
TTITLE7=Blues
TTITLE8=Dust On The Radio
TTITLE9=The Last Laugh
TTITLE10=For The Turnstiles
TTITLE11=On Death
TTITLE12=Robert Johnson
TTITLE13=Ry The Greek
EXTD=
EXTT0=
EXTT1=
EXTT2=
EXTT3=
EXTT4=
EXTT5=
EXTT6=
EXTT7=
EXTT8=
EXTT9=
EXTT10=
EXTT11=
EXTT12=
EXTT13=
PLAYORDER=
